<svg xmlns="http://www.w3.org/2000/svg" xmlns:xlink="http://www.w3.org/1999/xlink" width="80" zoomAndPan="magnify" viewBox="0 0 30 30.000001" height="80" preserveAspectRatio="xMidYMid meet" version="1.0"><defs><g/></defs><g fill="#ff3131" fill-opacity="1"><g transform="translate(11.067494, 13.147773)"><g><path d="M -0.234375 -8.265625 L -0.234375 -8.53125 L 3.09375 -8.53125 L 3.09375 -8.265625 L 2.265625 -8.203125 L 4.65625 -2.140625 L 4.671875 -2.140625 L 6.765625 -8.203125 L 5.953125 -8.265625 L 5.953125 -8.53125 L 7.859375 -8.53125 L 7.859375 -8.265625 L 7.140625 -8.203125 L 4.296875 0.125 L 4.03125 0.125 L 0.671875 -8.203125 Z M -0.234375 -8.265625 "/></g></g></g><g fill="#000000" fill-opacity="1"><g transform="translate(11.645871, 23.309063)"><g><path d="M 3.4375 -8.421875 C 3.15625 -8.421875 2.90625 -8.382812 2.6875 -8.3125 C 2.46875 -8.25 2.285156 -8.15625 2.140625 -8.03125 C 1.992188 -7.90625 1.878906 -7.753906 1.796875 -7.578125 C 1.722656 -7.410156 1.6875 -7.222656 1.6875 -7.015625 C 1.6875 -6.859375 1.707031 -6.707031 1.75 -6.5625 C 1.789062 -6.425781 1.875 -6.28125 2 -6.125 C 2.132812 -5.976562 2.328125 -5.828125 2.578125 -5.671875 C 2.828125 -5.515625 3.164062 -5.34375 3.59375 -5.15625 C 4.070312 -4.9375 4.476562 -4.726562 4.8125 -4.53125 C 5.15625 -4.332031 5.429688 -4.125 5.640625 -3.90625 C 5.859375 -3.6875 6.015625 -3.4375 6.109375 -3.15625 C 6.203125 -2.882812 6.25 -2.5625 6.25 -2.1875 C 6.25 -1.90625 6.1875 -1.617188 6.0625 -1.328125 C 5.945312 -1.035156 5.773438 -0.773438 5.546875 -0.546875 C 5.316406 -0.328125 5.023438 -0.144531 4.671875 0 C 4.316406 0.132812 3.898438 0.203125 3.421875 0.203125 C 2.898438 0.203125 2.457031 0.15625 2.09375 0.0625 C 1.738281 -0.03125 1.453125 -0.15625 1.234375 -0.3125 C 1.015625 -0.46875 0.859375 -0.644531 0.765625 -0.84375 C 0.671875 -1.039062 0.625 -1.238281 0.625 -1.4375 C 0.625 -1.570312 0.640625 -1.695312 0.671875 -1.8125 C 0.710938 -1.925781 0.769531 -2.023438 0.84375 -2.109375 C 0.925781 -2.191406 1.023438 -2.257812 1.140625 -2.3125 C 1.253906 -2.363281 1.382812 -2.390625 1.53125 -2.390625 C 1.664062 -2.390625 1.785156 -2.363281 1.890625 -2.3125 C 1.992188 -2.269531 2.082031 -2.207031 2.15625 -2.125 C 2.226562 -2.050781 2.285156 -1.960938 2.328125 -1.859375 C 2.378906 -1.753906 2.40625 -1.640625 2.40625 -1.515625 C 2.40625 -1.234375 2.320312 -1.019531 2.15625 -0.875 C 1.988281 -0.726562 1.773438 -0.65625 1.515625 -0.65625 L 1.515625 -0.640625 C 1.546875 -0.609375 1.601562 -0.5625 1.6875 -0.5 C 1.769531 -0.445312 1.882812 -0.390625 2.03125 -0.328125 C 2.175781 -0.273438 2.351562 -0.226562 2.5625 -0.1875 C 2.78125 -0.144531 3.03125 -0.125 3.3125 -0.125 C 3.550781 -0.125 3.789062 -0.15625 4.03125 -0.21875 C 4.269531 -0.28125 4.484375 -0.367188 4.671875 -0.484375 C 4.859375 -0.609375 5.007812 -0.753906 5.125 -0.921875 C 5.238281 -1.097656 5.296875 -1.296875 5.296875 -1.515625 C 5.296875 -1.691406 5.257812 -1.859375 5.1875 -2.015625 C 5.125 -2.179688 5 -2.347656 4.8125 -2.515625 C 4.625 -2.679688 4.363281 -2.859375 4.03125 -3.046875 C 3.695312 -3.234375 3.265625 -3.445312 2.734375 -3.6875 C 2.335938 -3.851562 2.007812 -4.035156 1.75 -4.234375 C 1.5 -4.441406 1.300781 -4.65625 1.15625 -4.875 C 1.007812 -5.101562 0.90625 -5.335938 0.84375 -5.578125 C 0.789062 -5.828125 0.765625 -6.082031 0.765625 -6.34375 C 0.765625 -6.675781 0.820312 -6.984375 0.9375 -7.265625 C 1.0625 -7.554688 1.238281 -7.8125 1.46875 -8.03125 C 1.695312 -8.25 1.976562 -8.421875 2.3125 -8.546875 C 2.644531 -8.679688 3.023438 -8.75 3.453125 -8.75 C 3.859375 -8.75 4.210938 -8.695312 4.515625 -8.59375 C 4.828125 -8.5 5.082031 -8.375 5.28125 -8.21875 C 5.476562 -8.0625 5.625 -7.878906 5.71875 -7.671875 C 5.820312 -7.460938 5.875 -7.242188 5.875 -7.015625 C 5.875 -6.898438 5.851562 -6.785156 5.8125 -6.671875 C 5.78125 -6.566406 5.722656 -6.472656 5.640625 -6.390625 C 5.566406 -6.304688 5.472656 -6.238281 5.359375 -6.1875 C 5.253906 -6.132812 5.128906 -6.109375 4.984375 -6.109375 C 4.847656 -6.109375 4.726562 -6.128906 4.625 -6.171875 C 4.519531 -6.222656 4.425781 -6.285156 4.34375 -6.359375 C 4.269531 -6.429688 4.210938 -6.519531 4.171875 -6.625 C 4.128906 -6.726562 4.109375 -6.84375 4.109375 -6.96875 C 4.109375 -7.101562 4.128906 -7.222656 4.171875 -7.328125 C 4.222656 -7.441406 4.285156 -7.535156 4.359375 -7.609375 C 4.441406 -7.691406 4.539062 -7.75 4.65625 -7.78125 C 4.769531 -7.820312 4.890625 -7.84375 5.015625 -7.84375 L 5.015625 -7.859375 C 4.992188 -7.890625 4.945312 -7.9375 4.875 -8 C 4.800781 -8.0625 4.703125 -8.125 4.578125 -8.1875 C 4.453125 -8.25 4.296875 -8.300781 4.109375 -8.34375 C 3.921875 -8.394531 3.695312 -8.421875 3.4375 -8.421875 Z M 3.4375 -8.421875 "/></g></g></g></svg>